<?xml version="1.0" encoding="UTF-8" standalone="no"?>
<!DOCTYPE svg PUBLIC "-//W3C//DTD SVG 1.1//EN"
 "http://www.w3.org/Graphics/SVG/1.1/DTD/svg11.dtd">
<!-- Generated by graphviz version 2.40.1 (20161225.0304)
 -->
<!-- Title: G Pages: 1 -->
<svg width="254pt" height="124pt"
 viewBox="7.20 7.20 247.20 117.20" xmlns="http://www.w3.org/2000/svg" xmlns:xlink="http://www.w3.org/1999/xlink">
<g id="graph0" class="graph" transform="scale(1 1) rotate(0) translate(11.2 113.2)">
<title>G</title>
<polygon fill="#ffffff" stroke="transparent" points="-4,4 -4,-106 236,-106 236,4 -4,4"/>
<!-- start -->
<g id="node1" class="node">
<title>start</title>
</g>
<!-- 0 -->
<g id="node2" class="node">
<title>0</title>
<ellipse fill="none" stroke="#000000" cx="56" cy="-18" rx="18" ry="18"/>
<text text-anchor="middle" x="56" y="-14.3" font-family="Times,serif" font-size="14.00" fill="#000000">0</text>
</g>
<!-- start&#45;&gt;0 -->
<g id="edge5" class="edge">
<title>start&#45;&gt;0</title>
<path fill="none" stroke="#000000" stroke-dasharray="5,2" d="M1.1233,-18C3.9234,-18 15.7247,-18 27.6695,-18"/>
<polygon fill="#000000" stroke="#000000" points="27.9808,-21.5001 37.9807,-18 27.9807,-14.5001 27.9808,-21.5001"/>
</g>
<!-- 0&#45;&gt;0 -->
<g id="edge1" class="edge">
<title>0&#45;&gt;0</title>
<path fill="none" stroke="#000000" d="M52.7643,-35.7817C52.2144,-45.3149 53.293,-54 56,-54 57.6496,-54 58.6945,-50.7749 59.1347,-46.0981"/>
<polygon fill="#000000" stroke="#000000" points="62.6375,-45.8156 59.2357,-35.7817 55.6379,-45.7469 62.6375,-45.8156"/>
<text text-anchor="middle" x="56" y="-57.8" font-family="Times,serif" font-size="14.00" fill="#000000">a</text>
</g>
<!-- 0&#45;&gt;0 -->
<g id="edge2" class="edge">
<title>0&#45;&gt;0</title>
<path fill="none" stroke="#000000" d="M50.6841,-35.4203C47.6538,-52.791 49.4258,-72 56,-72 61.2902,-72 63.4708,-59.5617 62.5419,-45.652"/>
<polygon fill="#000000" stroke="#000000" points="65.9808,-44.9328 61.3159,-35.4203 59.0305,-45.7657 65.9808,-44.9328"/>
<text text-anchor="middle" x="56" y="-75.8" font-family="Times,serif" font-size="14.00" fill="#000000">b</text>
</g>
<!-- 1 -->
<g id="node3" class="node">
<title>1</title>
<ellipse fill="none" stroke="#000000" cx="135" cy="-18" rx="18" ry="18"/>
<text text-anchor="middle" x="135" y="-14.3" font-family="Times,serif" font-size="14.00" fill="#000000">1</text>
</g>
<!-- 0&#45;&gt;1 -->
<g id="edge3" class="edge">
<title>0&#45;&gt;1</title>
<path fill="none" stroke="#000000" d="M74.3228,-18C83.8947,-18 95.8223,-18 106.5629,-18"/>
<polygon fill="#000000" stroke="#000000" points="106.7766,-21.5001 116.7766,-18 106.7766,-14.5001 106.7766,-21.5001"/>
<text text-anchor="middle" x="95.5" y="-21.8" font-family="Times,serif" font-size="14.00" fill="#000000">b</text>
</g>
<!-- 2 -->
<g id="node4" class="node">
<title>2</title>
<ellipse fill="none" stroke="#000000" stroke-width="2" cx="214" cy="-18" rx="18" ry="18"/>
<text text-anchor="middle" x="214" y="-14.3" font-family="Times,serif" font-size="14.00" fill="#000000">2</text>
</g>
<!-- 1&#45;&gt;2 -->
<g id="edge4" class="edge">
<title>1&#45;&gt;2</title>
<path fill="none" stroke="#000000" d="M153.3228,-18C162.8947,-18 174.8223,-18 185.5629,-18"/>
<polygon fill="#000000" stroke="#000000" points="185.7766,-21.5001 195.7766,-18 185.7766,-14.5001 185.7766,-21.5001"/>
<text text-anchor="middle" x="174.5" y="-21.8" font-family="Times,serif" font-size="14.00" fill="#000000">a</text>
</g>
</g>
</svg>
