<?xml version="1.0" encoding="UTF-8" standalone="no"?>
<!DOCTYPE svg PUBLIC "-//W3C//DTD SVG 1.1//EN"
 "http://www.w3.org/Graphics/SVG/1.1/DTD/svg11.dtd">
<!-- Generated by graphviz version 2.40.1 (20161225.0304)
 -->
<!-- Title: G Pages: 1 -->
<svg width="254pt" height="126pt"
 viewBox="7.20 7.20 247.20 119.20" xmlns="http://www.w3.org/2000/svg" xmlns:xlink="http://www.w3.org/1999/xlink">
<g id="graph0" class="graph" transform="scale(1 1) rotate(0) translate(11.2 115.2)">
<title>G</title>
<polygon fill="#ffffff" stroke="transparent" points="-4,4 -4,-108 236,-108 236,4 -4,4"/>
<!-- start -->
<g id="node1" class="node">
<title>start</title>
</g>
<!-- 0 -->
<g id="node2" class="node">
<title>0</title>
<ellipse fill="none" stroke="#000000" cx="56" cy="-18" rx="18" ry="18"/>
<text text-anchor="middle" x="56" y="-14.3" font-family="Times,serif" font-size="14.00" fill="#000000">0</text>
</g>
<!-- start&#45;&gt;0 -->
<g id="edge7" class="edge">
<title>start&#45;&gt;0</title>
<path fill="none" stroke="#000000" stroke-dasharray="5,2" d="M1.1233,-18C3.9234,-18 15.7247,-18 27.6695,-18"/>
<polygon fill="#000000" stroke="#000000" points="27.9808,-21.5001 37.9807,-18 27.9807,-14.5001 27.9808,-21.5001"/>
</g>
<!-- 0&#45;&gt;0 -->
<g id="edge1" class="edge">
<title>0&#45;&gt;0</title>
<path fill="none" stroke="#000000" d="M49.6208,-35.0373C48.3189,-44.8579 50.4453,-54 56,-54 59.4717,-54 61.6042,-50.4289 62.3975,-45.3529"/>
<polygon fill="#000000" stroke="#000000" points="65.8971,-45.031 62.3792,-35.0373 58.8971,-45.0435 65.8971,-45.031"/>
<text text-anchor="middle" x="56" y="-57.8" font-family="Times,serif" font-size="14.00" fill="#000000">a</text>
</g>
<!-- 1 -->
<g id="node3" class="node">
<title>1</title>
<ellipse fill="none" stroke="#000000" cx="135" cy="-53" rx="18" ry="18"/>
<text text-anchor="middle" x="135" y="-49.3" font-family="Times,serif" font-size="14.00" fill="#000000">1</text>
</g>
<!-- 0&#45;&gt;1 -->
<g id="edge2" class="edge">
<title>0&#45;&gt;1</title>
<path fill="none" stroke="#000000" d="M72.7539,-25.4226C83.2985,-30.0943 97.1238,-36.2194 109.066,-41.5103"/>
<polygon fill="#000000" stroke="#000000" points="107.9805,-44.8574 118.5412,-45.7081 110.816,-38.4574 107.9805,-44.8574"/>
<text text-anchor="middle" x="95.5" y="-39.8" font-family="Times,serif" font-size="14.00" fill="#000000">b</text>
</g>
<!-- 1&#45;&gt;1 -->
<g id="edge4" class="edge">
<title>1&#45;&gt;1</title>
<path fill="none" stroke="#000000" d="M128.2664,-70.0373C126.8922,-79.8579 129.1367,-89 135,-89 138.6646,-89 140.9155,-85.4289 141.7529,-80.3529"/>
<polygon fill="#000000" stroke="#000000" points="145.2524,-80.0307 141.7336,-70.0373 138.2524,-80.0439 145.2524,-80.0307"/>
<text text-anchor="middle" x="135" y="-92.8" font-family="Times,serif" font-size="14.00" fill="#000000">b</text>
</g>
<!-- 2 -->
<g id="node4" class="node">
<title>2</title>
<ellipse fill="none" stroke="#000000" stroke-width="2" cx="214" cy="-35" rx="18" ry="18"/>
<text text-anchor="middle" x="214" y="-31.3" font-family="Times,serif" font-size="14.00" fill="#000000">2</text>
</g>
<!-- 1&#45;&gt;2 -->
<g id="edge3" class="edge">
<title>1&#45;&gt;2</title>
<path fill="none" stroke="#000000" d="M153.1993,-53.6375C160.9361,-53.5284 170.0002,-52.8929 178,-51 181.5005,-50.1717 185.0821,-49.0084 188.5638,-47.6828"/>
<polygon fill="#000000" stroke="#000000" points="190.1455,-50.813 197.9612,-43.66 187.3907,-44.3778 190.1455,-50.813"/>
<text text-anchor="middle" x="174.5" y="-55.8" font-family="Times,serif" font-size="14.00" fill="#000000">a</text>
</g>
<!-- 2&#45;&gt;0 -->
<g id="edge5" class="edge">
<title>2&#45;&gt;0</title>
<path fill="none" stroke="#000000" d="M197.9295,-26.7522C185.9091,-21.066 168.8773,-14.0111 153,-11 129.9058,-6.6203 103.2428,-9.0744 83.7226,-12.2247"/>
<polygon fill="#000000" stroke="#000000" points="82.915,-8.8133 73.6808,-14.0076 84.1387,-15.7055 82.915,-8.8133"/>
<text text-anchor="middle" x="135" y="-14.8" font-family="Times,serif" font-size="14.00" fill="#000000">a</text>
</g>
<!-- 2&#45;&gt;1 -->
<g id="edge6" class="edge">
<title>2&#45;&gt;1</title>
<path fill="none" stroke="#000000" d="M196.1698,-31.1439C188.3328,-30.1134 179.091,-29.8126 171,-32 166.7567,-33.1472 162.5,-34.9325 158.4752,-36.9884"/>
<polygon fill="#000000" stroke="#000000" points="156.5285,-34.0709 149.6205,-42.104 160.0302,-40.1322 156.5285,-34.0709"/>
<text text-anchor="middle" x="174.5" y="-35.8" font-family="Times,serif" font-size="14.00" fill="#000000">b</text>
</g>
</g>
</svg>
