<?xml version="1.0" encoding="UTF-8" standalone="no"?>
<!DOCTYPE svg PUBLIC "-//W3C//DTD SVG 1.1//EN"
 "http://www.w3.org/Graphics/SVG/1.1/DTD/svg11.dtd">
<!-- Generated by graphviz version 2.40.1 (20161225.0304)
 -->
<!-- Title: G Pages: 1 -->
<svg width="333pt" height="167pt"
 viewBox="7.20 7.20 326.20 160.20" xmlns="http://www.w3.org/2000/svg" xmlns:xlink="http://www.w3.org/1999/xlink">
<g id="graph0" class="graph" transform="scale(1 1) rotate(0) translate(11.2 156.2)">
<title>G</title>
<polygon fill="#ffffff" stroke="transparent" points="-4,4 -4,-149 315,-149 315,4 -4,4"/>
<!-- start -->
<g id="node1" class="node">
<title>start</title>
</g>
<!-- 0 -->
<g id="node2" class="node">
<title>0</title>
<ellipse fill="none" stroke="#000000" cx="56" cy="-45" rx="18" ry="18"/>
<text text-anchor="middle" x="56" y="-41.3" font-family="Times,serif" font-size="14.00" fill="#000000">0</text>
</g>
<!-- start&#45;&gt;0 -->
<g id="edge9" class="edge">
<title>start&#45;&gt;0</title>
<path fill="none" stroke="#000000" stroke-dasharray="5,2" d="M1.1233,-45C3.9234,-45 15.7247,-45 27.6695,-45"/>
<polygon fill="#000000" stroke="#000000" points="27.9808,-48.5001 37.9807,-45 27.9807,-41.5001 27.9808,-48.5001"/>
</g>
<!-- 1 -->
<g id="node3" class="node">
<title>1</title>
<ellipse fill="none" stroke="#000000" cx="135" cy="-72" rx="18" ry="18"/>
<text text-anchor="middle" x="135" y="-68.3" font-family="Times,serif" font-size="14.00" fill="#000000">1</text>
</g>
<!-- 0&#45;&gt;1 -->
<g id="edge1" class="edge">
<title>0&#45;&gt;1</title>
<path fill="none" stroke="#000000" d="M73.1418,-50.8586C83.3906,-54.3613 96.6336,-58.8874 108.2353,-62.8526"/>
<polygon fill="#000000" stroke="#000000" points="107.2971,-66.2306 117.8916,-66.1528 109.561,-59.6068 107.2971,-66.2306"/>
<text text-anchor="middle" x="95.5" y="-62.8" font-family="Times,serif" font-size="14.00" fill="#000000">ε</text>
</g>
<!-- 2 -->
<g id="node4" class="node">
<title>2</title>
<ellipse fill="none" stroke="#000000" cx="135" cy="-18" rx="18" ry="18"/>
<text text-anchor="middle" x="135" y="-14.3" font-family="Times,serif" font-size="14.00" fill="#000000">2</text>
</g>
<!-- 0&#45;&gt;2 -->
<g id="edge2" class="edge">
<title>0&#45;&gt;2</title>
<path fill="none" stroke="#000000" d="M73.1418,-39.1414C83.3906,-35.6387 96.6336,-31.1126 108.2353,-27.1474"/>
<polygon fill="#000000" stroke="#000000" points="109.561,-30.3932 117.8916,-23.8472 107.2971,-23.7694 109.561,-30.3932"/>
<text text-anchor="middle" x="95.5" y="-35.8" font-family="Times,serif" font-size="14.00" fill="#000000">ε</text>
</g>
<!-- 3 -->
<g id="node5" class="node">
<title>3</title>
<ellipse fill="none" stroke="#000000" stroke-width="2" cx="214" cy="-94" rx="18" ry="18"/>
<text text-anchor="middle" x="214" y="-90.3" font-family="Times,serif" font-size="14.00" fill="#000000">3</text>
</g>
<!-- 1&#45;&gt;3 -->
<g id="edge3" class="edge">
<title>1&#45;&gt;3</title>
<path fill="none" stroke="#000000" d="M152.5327,-76.8825C162.556,-79.6738 175.3463,-83.2357 186.6614,-86.3867"/>
<polygon fill="#000000" stroke="#000000" points="185.9439,-89.82 196.5163,-89.1311 187.8219,-83.0766 185.9439,-89.82"/>
<text text-anchor="middle" x="174.5" y="-86.8" font-family="Times,serif" font-size="14.00" fill="#000000">ε</text>
</g>
<!-- 4 -->
<g id="node6" class="node">
<title>4</title>
<ellipse fill="none" stroke="#000000" cx="214" cy="-29" rx="18" ry="18"/>
<text text-anchor="middle" x="214" y="-25.3" font-family="Times,serif" font-size="14.00" fill="#000000">4</text>
</g>
<!-- 1&#45;&gt;4 -->
<g id="edge4" class="edge">
<title>1&#45;&gt;4</title>
<path fill="none" stroke="#000000" d="M150.9868,-63.2983C161.9089,-57.3534 176.602,-49.3559 189.0526,-42.5789"/>
<polygon fill="#000000" stroke="#000000" points="190.927,-45.5437 198.0369,-37.6888 187.5805,-39.3954 190.927,-45.5437"/>
<text text-anchor="middle" x="174.5" y="-54.8" font-family="Times,serif" font-size="14.00" fill="#000000">b</text>
</g>
<!-- 2&#45;&gt;4 -->
<g id="edge5" class="edge">
<title>2&#45;&gt;4</title>
<path fill="none" stroke="#000000" d="M153.0768,-17.43C160.7929,-17.4421 169.8747,-17.7961 178,-19 180.8875,-19.4278 183.8722,-20.0142 186.8307,-20.6903"/>
<polygon fill="#000000" stroke="#000000" points="186.0502,-24.1037 196.6093,-23.2336 187.8123,-17.3291 186.0502,-24.1037"/>
<text text-anchor="middle" x="174.5" y="-22.8" font-family="Times,serif" font-size="14.00" fill="#000000">a</text>
</g>
<!-- 3&#45;&gt;3 -->
<g id="edge6" class="edge">
<title>3&#45;&gt;3</title>
<path fill="none" stroke="#000000" d="M207.2664,-111.0373C205.8922,-120.8579 208.1367,-130 214,-130 217.6646,-130 219.9155,-126.4289 220.7529,-121.3529"/>
<polygon fill="#000000" stroke="#000000" points="224.2524,-121.0307 220.7336,-111.0373 217.2524,-121.0439 224.2524,-121.0307"/>
<text text-anchor="middle" x="214" y="-133.8" font-family="Times,serif" font-size="14.00" fill="#000000">c</text>
</g>
<!-- 5 -->
<g id="node7" class="node">
<title>5</title>
<ellipse fill="none" stroke="#000000" stroke-width="2" cx="293" cy="-29" rx="18" ry="18"/>
<text text-anchor="middle" x="293" y="-25.3" font-family="Times,serif" font-size="14.00" fill="#000000">5</text>
</g>
<!-- 4&#45;&gt;5 -->
<g id="edge7" class="edge">
<title>4&#45;&gt;5</title>
<path fill="none" stroke="#000000" d="M232.3228,-29C241.8947,-29 253.8223,-29 264.5629,-29"/>
<polygon fill="#000000" stroke="#000000" points="264.7766,-32.5001 274.7766,-29 264.7766,-25.5001 264.7766,-32.5001"/>
<text text-anchor="middle" x="253.5" y="-32.8" font-family="Times,serif" font-size="14.00" fill="#000000">ε</text>
</g>
<!-- 5&#45;&gt;5 -->
<g id="edge8" class="edge">
<title>5&#45;&gt;5</title>
<path fill="none" stroke="#000000" d="M286.2664,-46.0373C284.8922,-55.8579 287.1367,-65 293,-65 296.6646,-65 298.9155,-61.4289 299.7529,-56.3529"/>
<polygon fill="#000000" stroke="#000000" points="303.2524,-56.0307 299.7336,-46.0373 296.2524,-56.0439 303.2524,-56.0307"/>
<text text-anchor="middle" x="293" y="-68.8" font-family="Times,serif" font-size="14.00" fill="#000000">d</text>
</g>
</g>
</svg>
