<?xml version="1.0" encoding="UTF-8" standalone="no"?>
<!DOCTYPE svg PUBLIC "-//W3C//DTD SVG 1.1//EN"
 "http://www.w3.org/Graphics/SVG/1.1/DTD/svg11.dtd">
<!-- Generated by graphviz version 2.40.1 (20161225.0304)
 -->
<!-- Title: G Pages: 1 -->
<svg width="254pt" height="156pt"
 viewBox="7.20 7.20 247.20 149.20" xmlns="http://www.w3.org/2000/svg" xmlns:xlink="http://www.w3.org/1999/xlink">
<g id="graph0" class="graph" transform="scale(1 1) rotate(0) translate(11.2 145.2)">
<title>G</title>
<polygon fill="#ffffff" stroke="transparent" points="-4,4 -4,-138 236,-138 236,4 -4,4"/>
<!-- start -->
<g id="node1" class="node">
<title>start</title>
</g>
<!-- 0 -->
<g id="node2" class="node">
<title>0</title>
<ellipse fill="none" stroke="#000000" stroke-width="2" cx="56" cy="-45" rx="18" ry="18"/>
<text text-anchor="middle" x="56" y="-41.3" font-family="Times,serif" font-size="14.00" fill="#000000">0</text>
</g>
<!-- start&#45;&gt;0 -->
<g id="edge7" class="edge">
<title>start&#45;&gt;0</title>
<path fill="none" stroke="#000000" stroke-dasharray="5,2" d="M1.1233,-45C3.9234,-45 15.7247,-45 27.6695,-45"/>
<polygon fill="#000000" stroke="#000000" points="27.9808,-48.5001 37.9807,-45 27.9807,-41.5001 27.9808,-48.5001"/>
</g>
<!-- 1 -->
<g id="node3" class="node">
<title>1</title>
<ellipse fill="none" stroke="#000000" stroke-width="2" cx="135" cy="-83" rx="18" ry="18"/>
<text text-anchor="middle" x="135" y="-79.3" font-family="Times,serif" font-size="14.00" fill="#000000">1</text>
</g>
<!-- 0&#45;&gt;1 -->
<g id="edge1" class="edge">
<title>0&#45;&gt;1</title>
<path fill="none" stroke="#000000" d="M72.3689,-52.8736C83.0672,-58.0197 97.261,-64.8471 109.4312,-70.7011"/>
<polygon fill="#000000" stroke="#000000" points="108.1233,-73.9558 118.6521,-75.1365 111.1576,-67.6476 108.1233,-73.9558"/>
<text text-anchor="middle" x="95.5" y="-68.8" font-family="Times,serif" font-size="14.00" fill="#000000">c</text>
</g>
<!-- 2 -->
<g id="node4" class="node">
<title>2</title>
<ellipse fill="none" stroke="#000000" stroke-width="2" cx="135" cy="-18" rx="18" ry="18"/>
<text text-anchor="middle" x="135" y="-14.3" font-family="Times,serif" font-size="14.00" fill="#000000">2</text>
</g>
<!-- 0&#45;&gt;2 -->
<g id="edge2" class="edge">
<title>0&#45;&gt;2</title>
<path fill="none" stroke="#000000" d="M73.1418,-39.1414C83.3906,-35.6387 96.6336,-31.1126 108.2353,-27.1474"/>
<polygon fill="#000000" stroke="#000000" points="109.561,-30.3932 117.8916,-23.8472 107.2971,-23.7694 109.561,-30.3932"/>
<text text-anchor="middle" x="95.5" y="-35.8" font-family="Times,serif" font-size="14.00" fill="#000000">b</text>
</g>
<!-- 0&#45;&gt;2 -->
<g id="edge3" class="edge">
<title>0&#45;&gt;2</title>
<path fill="none" stroke="#000000" d="M66.9425,-30.3446C73.3383,-23.0385 82.0941,-14.9384 92,-11 97.0539,-8.9907 102.6612,-8.6624 108.1123,-9.2293"/>
<polygon fill="#000000" stroke="#000000" points="107.7282,-12.7208 118.2156,-11.2162 109.0789,-5.8523 107.7282,-12.7208"/>
<text text-anchor="middle" x="95.5" y="-14.8" font-family="Times,serif" font-size="14.00" fill="#000000">a</text>
</g>
<!-- 1&#45;&gt;1 -->
<g id="edge6" class="edge">
<title>1&#45;&gt;1</title>
<path fill="none" stroke="#000000" d="M128.2664,-100.0373C126.8922,-109.8579 129.1367,-119 135,-119 138.6646,-119 140.9155,-115.4289 141.7529,-110.3529"/>
<polygon fill="#000000" stroke="#000000" points="145.2524,-110.0307 141.7336,-100.0373 138.2524,-110.0439 145.2524,-110.0307"/>
<text text-anchor="middle" x="135" y="-122.8" font-family="Times,serif" font-size="14.00" fill="#000000">c</text>
</g>
<!-- 3 -->
<g id="node5" class="node">
<title>3</title>
<ellipse fill="none" stroke="#000000" stroke-width="2" cx="214" cy="-18" rx="18" ry="18"/>
<text text-anchor="middle" x="214" y="-14.3" font-family="Times,serif" font-size="14.00" fill="#000000">3</text>
</g>
<!-- 2&#45;&gt;3 -->
<g id="edge4" class="edge">
<title>2&#45;&gt;3</title>
<path fill="none" stroke="#000000" d="M153.3228,-18C162.8947,-18 174.8223,-18 185.5629,-18"/>
<polygon fill="#000000" stroke="#000000" points="185.7766,-21.5001 195.7766,-18 185.7766,-14.5001 185.7766,-21.5001"/>
<text text-anchor="middle" x="174.5" y="-21.8" font-family="Times,serif" font-size="14.00" fill="#000000">d</text>
</g>
<!-- 3&#45;&gt;3 -->
<g id="edge5" class="edge">
<title>3&#45;&gt;3</title>
<path fill="none" stroke="#000000" d="M207.2664,-35.0373C205.8922,-44.8579 208.1367,-54 214,-54 217.6646,-54 219.9155,-50.4289 220.7529,-45.3529"/>
<polygon fill="#000000" stroke="#000000" points="224.2524,-45.0307 220.7336,-35.0373 217.2524,-45.0439 224.2524,-45.0307"/>
<text text-anchor="middle" x="214" y="-57.8" font-family="Times,serif" font-size="14.00" fill="#000000">d</text>
</g>
</g>
</svg>
