<?xml version="1.0" encoding="UTF-8" standalone="no"?>
<!DOCTYPE svg PUBLIC "-//W3C//DTD SVG 1.1//EN"
 "http://www.w3.org/Graphics/SVG/1.1/DTD/svg11.dtd">
<!-- Generated by graphviz version 2.40.1 (20161225.0304)
 -->
<!-- Title: G Pages: 1 -->
<svg width="254pt" height="126pt"
 viewBox="7.20 7.20 247.20 119.06" xmlns="http://www.w3.org/2000/svg" xmlns:xlink="http://www.w3.org/1999/xlink">
<g id="graph0" class="graph" transform="scale(1 1) rotate(0) translate(11.2 115.065)">
<title>G</title>
<polygon fill="#ffffff" stroke="transparent" points="-4,4 -4,-107.865 236,-107.865 236,4 -4,4"/>
<!-- start -->
<g id="node1" class="node">
<title>start</title>
</g>
<!-- 0 -->
<g id="node2" class="node">
<title>0</title>
<ellipse fill="none" stroke="#000000" cx="56" cy="-19.865" rx="18" ry="18"/>
<text text-anchor="middle" x="56" y="-16.165" font-family="Times,serif" font-size="14.00" fill="#000000">0</text>
</g>
<!-- start&#45;&gt;0 -->
<g id="edge6" class="edge">
<title>start&#45;&gt;0</title>
<path fill="none" stroke="#000000" stroke-dasharray="5,2" d="M1.1233,-19.865C3.9234,-19.865 15.7247,-19.865 27.6695,-19.865"/>
<polygon fill="#000000" stroke="#000000" points="27.9808,-23.3651 37.9807,-19.865 27.9807,-16.3651 27.9808,-23.3651"/>
</g>
<!-- 0&#45;&gt;0 -->
<g id="edge1" class="edge">
<title>0&#45;&gt;0</title>
<path fill="none" stroke="#000000" d="M52.7643,-37.6467C52.2144,-47.1799 53.293,-55.865 56,-55.865 57.6496,-55.865 58.6945,-52.6399 59.1347,-47.9631"/>
<polygon fill="#000000" stroke="#000000" points="62.6375,-47.6806 59.2357,-37.6467 55.6379,-47.6119 62.6375,-47.6806"/>
<text text-anchor="middle" x="56" y="-59.665" font-family="Times,serif" font-size="14.00" fill="#000000">a</text>
</g>
<!-- 0&#45;&gt;0 -->
<g id="edge2" class="edge">
<title>0&#45;&gt;0</title>
<path fill="none" stroke="#000000" d="M50.6841,-37.2853C47.6538,-54.6559 49.4258,-73.865 56,-73.865 61.2902,-73.865 63.4708,-61.4267 62.5419,-47.517"/>
<polygon fill="#000000" stroke="#000000" points="65.9808,-46.7978 61.3159,-37.2853 59.0305,-47.6307 65.9808,-46.7978"/>
<text text-anchor="middle" x="56" y="-77.665" font-family="Times,serif" font-size="14.00" fill="#000000">b</text>
</g>
<!-- 1 -->
<g id="node3" class="node">
<title>1</title>
<ellipse fill="none" stroke="#000000" cx="135" cy="-19.865" rx="18" ry="18"/>
<text text-anchor="middle" x="135" y="-16.165" font-family="Times,serif" font-size="14.00" fill="#000000">1</text>
</g>
<!-- 0&#45;&gt;1 -->
<g id="edge3" class="edge">
<title>0&#45;&gt;1</title>
<path fill="none" stroke="#000000" d="M74.3228,-19.865C83.8947,-19.865 95.8223,-19.865 106.5629,-19.865"/>
<polygon fill="#000000" stroke="#000000" points="106.7766,-23.3651 116.7766,-19.865 106.7766,-16.3651 106.7766,-23.3651"/>
<text text-anchor="middle" x="95.5" y="-23.665" font-family="Times,serif" font-size="14.00" fill="#000000">b</text>
</g>
<!-- 2 -->
<g id="node4" class="node">
<title>2</title>
<ellipse fill="none" stroke="#000000" stroke-width="2" cx="214" cy="-19.865" rx="18" ry="18"/>
<text text-anchor="middle" x="214" y="-16.165" font-family="Times,serif" font-size="14.00" fill="#000000">2</text>
</g>
<!-- 1&#45;&gt;2 -->
<g id="edge4" class="edge">
<title>1&#45;&gt;2</title>
<path fill="none" stroke="#000000" d="M153.3228,-19.865C162.8947,-19.865 174.8223,-19.865 185.5629,-19.865"/>
<polygon fill="#000000" stroke="#000000" points="185.7766,-23.3651 195.7766,-19.865 185.7766,-16.3651 185.7766,-23.3651"/>
<text text-anchor="middle" x="174.5" y="-23.665" font-family="Times,serif" font-size="14.00" fill="#000000">a</text>
</g>
<!-- 1&#45;&gt;2 -->
<g id="edge5" class="edge">
<title>1&#45;&gt;2</title>
<path fill="none" stroke="#000000" d="M150.1057,-9.7949C156.3068,-6.2331 163.7287,-2.6661 171,-.865 177.5506,.7576 184.3557,-.6502 190.5674,-3.3001"/>
<polygon fill="#000000" stroke="#000000" points="189.2545,-6.5684 199.7184,-8.2296 192.5743,-.4056 189.2545,-6.5684"/>
<text text-anchor="middle" x="174.5" y="-4.665" font-family="Times,serif" font-size="14.00" fill="#000000">b</text>
</g>
</g>
</svg>
