<?xml version="1.0" encoding="UTF-8" standalone="no"?>
<!DOCTYPE svg PUBLIC "-//W3C//DTD SVG 1.1//EN"
 "http://www.w3.org/Graphics/SVG/1.1/DTD/svg11.dtd">
<!-- Generated by graphviz version 2.40.1 (20161225.0304)
 -->
<!-- Title: G Pages: 1 -->
<svg width="333pt" height="223pt"
 viewBox="7.20 7.20 326.20 216.20" xmlns="http://www.w3.org/2000/svg" xmlns:xlink="http://www.w3.org/1999/xlink">
<g id="graph0" class="graph" transform="scale(1 1) rotate(0) translate(11.2 212.2)">
<title>G</title>
<polygon fill="#ffffff" stroke="transparent" points="-4,4 -4,-205 315,-205 315,4 -4,4"/>
<!-- start -->
<g id="node1" class="node">
<title>start</title>
</g>
<!-- 0 -->
<g id="node2" class="node">
<title>0</title>
<ellipse fill="none" stroke="#000000" cx="56" cy="-18" rx="18" ry="18"/>
<text text-anchor="middle" x="56" y="-14.3" font-family="Times,serif" font-size="14.00" fill="#000000">0</text>
</g>
<!-- start&#45;&gt;0 -->
<g id="edge9" class="edge">
<title>start&#45;&gt;0</title>
<path fill="none" stroke="#000000" stroke-dasharray="5,2" d="M1.1233,-18C3.9234,-18 15.7247,-18 27.6695,-18"/>
<polygon fill="#000000" stroke="#000000" points="27.9808,-21.5001 37.9807,-18 27.9807,-14.5001 27.9808,-21.5001"/>
</g>
<!-- 0&#45;&gt;0 -->
<g id="edge2" class="edge">
<title>0&#45;&gt;0</title>
<path fill="none" stroke="#000000" d="M49.6208,-35.0373C48.3189,-44.8579 50.4453,-54 56,-54 59.4717,-54 61.6042,-50.4289 62.3975,-45.3529"/>
<polygon fill="#000000" stroke="#000000" points="65.8971,-45.031 62.3792,-35.0373 58.8971,-45.0435 65.8971,-45.031"/>
<text text-anchor="middle" x="56" y="-57.8" font-family="Times,serif" font-size="14.00" fill="#000000">a</text>
</g>
<!-- 1 -->
<g id="node3" class="node">
<title>1</title>
<ellipse fill="none" stroke="#000000" cx="135" cy="-73" rx="18" ry="18"/>
<text text-anchor="middle" x="135" y="-69.3" font-family="Times,serif" font-size="14.00" fill="#000000">1</text>
</g>
<!-- 0&#45;&gt;1 -->
<g id="edge1" class="edge">
<title>0&#45;&gt;1</title>
<path fill="none" stroke="#000000" d="M70.8593,-28.3451C82.335,-36.3345 98.4307,-47.5403 111.627,-56.7277"/>
<polygon fill="#000000" stroke="#000000" points="110.0006,-59.86 120.2073,-62.7013 114.0002,-54.1151 110.0006,-59.86"/>
<text text-anchor="middle" x="95.5" y="-50.8" font-family="Times,serif" font-size="14.00" fill="#000000">b</text>
</g>
<!-- 2 -->
<g id="node4" class="node">
<title>2</title>
<ellipse fill="none" stroke="#000000" stroke-width="2" cx="214" cy="-150" rx="18" ry="18"/>
<text text-anchor="middle" x="214" y="-146.3" font-family="Times,serif" font-size="14.00" fill="#000000">2</text>
</g>
<!-- 1&#45;&gt;2 -->
<g id="edge3" class="edge">
<title>1&#45;&gt;2</title>
<path fill="none" stroke="#000000" d="M146.9109,-87.1012C153.7313,-94.9507 162.5838,-104.7692 171,-113 177.579,-119.4341 185.0838,-126.1004 191.9622,-131.9724"/>
<polygon fill="#000000" stroke="#000000" points="189.7489,-134.6842 199.6561,-138.4392 194.2529,-129.3256 189.7489,-134.6842"/>
<text text-anchor="middle" x="174.5" y="-122.8" font-family="Times,serif" font-size="14.00" fill="#000000">b</text>
</g>
<!-- 3 -->
<g id="node5" class="node">
<title>3</title>
<ellipse fill="none" stroke="#000000" stroke-width="2" cx="293" cy="-73" rx="18" ry="18"/>
<text text-anchor="middle" x="293" y="-69.3" font-family="Times,serif" font-size="14.00" fill="#000000">3</text>
</g>
<!-- 1&#45;&gt;3 -->
<g id="edge4" class="edge">
<title>1&#45;&gt;3</title>
<path fill="none" stroke="#000000" d="M153.1246,-73C180.3612,-73 232.093,-73 264.4377,-73"/>
<polygon fill="#000000" stroke="#000000" points="264.6001,-76.5001 274.6001,-73 264.6001,-69.5001 264.6001,-76.5001"/>
<text text-anchor="middle" x="214" y="-76.8" font-family="Times,serif" font-size="14.00" fill="#000000">a</text>
</g>
<!-- 2&#45;&gt;2 -->
<g id="edge7" class="edge">
<title>2&#45;&gt;2</title>
<path fill="none" stroke="#000000" d="M207.2664,-167.0373C205.8922,-176.8579 208.1367,-186 214,-186 217.6646,-186 219.9155,-182.4289 220.7529,-177.3529"/>
<polygon fill="#000000" stroke="#000000" points="224.2524,-177.0307 220.7336,-167.0373 217.2524,-177.0439 224.2524,-177.0307"/>
<text text-anchor="middle" x="214" y="-189.8" font-family="Times,serif" font-size="14.00" fill="#000000">b</text>
</g>
<!-- 2&#45;&gt;3 -->
<g id="edge8" class="edge">
<title>2&#45;&gt;3</title>
<path fill="none" stroke="#000000" d="M228.3439,-138.4392C236.9011,-131.3532 247.8466,-121.9517 257,-113 262.7861,-107.3413 268.7785,-100.9322 274.1749,-94.9284"/>
<polygon fill="#000000" stroke="#000000" points="277.0918,-96.9131 281.0891,-87.1012 271.8455,-92.2788 277.0918,-96.9131"/>
<text text-anchor="middle" x="253.5" y="-122.8" font-family="Times,serif" font-size="14.00" fill="#000000">a</text>
</g>
<!-- 3&#45;&gt;0 -->
<g id="edge6" class="edge">
<title>3&#45;&gt;0</title>
<path fill="none" stroke="#000000" d="M277.7316,-63.1403C271.5081,-59.4931 264.1134,-55.6147 257,-53 197.7671,-31.2274 123.6257,-22.8079 84.017,-19.7008"/>
<polygon fill="#000000" stroke="#000000" points="84.2592,-16.2093 74.0314,-18.974 83.7509,-23.1908 84.2592,-16.2093"/>
<text text-anchor="middle" x="174.5" y="-34.8" font-family="Times,serif" font-size="14.00" fill="#000000">a</text>
</g>
<!-- 3&#45;&gt;1 -->
<g id="edge5" class="edge">
<title>3&#45;&gt;1</title>
<path fill="none" stroke="#000000" d="M276.233,-66.2707C264.1564,-61.799 247.3523,-56.3356 232,-54 216.182,-51.5936 211.818,-51.5936 196,-54 184.3658,-55.7699 171.8979,-59.3361 161.2855,-62.9057"/>
<polygon fill="#000000" stroke="#000000" points="160.0286,-59.6377 151.767,-66.2707 162.3618,-66.2375 160.0286,-59.6377"/>
<text text-anchor="middle" x="214" y="-57.8" font-family="Times,serif" font-size="14.00" fill="#000000">b</text>
</g>
</g>
</svg>
