<?xml version="1.0" encoding="UTF-8" standalone="no"?>
<!DOCTYPE svg PUBLIC "-//W3C//DTD SVG 1.1//EN"
 "http://www.w3.org/Graphics/SVG/1.1/DTD/svg11.dtd">
<!-- Generated by graphviz version 2.40.1 (20161225.0304)
 -->
<!-- Title: G Pages: 1 -->
<svg width="254pt" height="463pt"
 viewBox="7.20 7.20 247.20 456.20" xmlns="http://www.w3.org/2000/svg" xmlns:xlink="http://www.w3.org/1999/xlink">
<g id="graph0" class="graph" transform="scale(1 1) rotate(0) translate(11.2 452.2)">
<title>G</title>
<polygon fill="#ffffff" stroke="transparent" points="-4,4 -4,-445 236,-445 236,4 -4,4"/>
<!-- start -->
<g id="node1" class="node">
<title>start</title>
</g>
<!-- 0 -->
<g id="node2" class="node">
<title>0</title>
<ellipse fill="none" stroke="#000000" cx="56" cy="-171" rx="18" ry="18"/>
<text text-anchor="middle" x="56" y="-167.3" font-family="Times,serif" font-size="14.00" fill="#000000">0</text>
</g>
<!-- start&#45;&gt;0 -->
<g id="edge19" class="edge">
<title>start&#45;&gt;0</title>
<path fill="none" stroke="#000000" stroke-dasharray="5,2" d="M1.1233,-171C3.9234,-171 15.7247,-171 27.6695,-171"/>
<polygon fill="#000000" stroke="#000000" points="27.9808,-174.5001 37.9807,-171 27.9807,-167.5001 27.9808,-174.5001"/>
</g>
<!-- 0&#45;&gt;0 -->
<g id="edge1" class="edge">
<title>0&#45;&gt;0</title>
<path fill="none" stroke="#000000" d="M53.8291,-189.1527C53.4951,-198.5391 54.2188,-207 56,-207 57.0854,-207 57.7782,-203.8581 58.0781,-199.2796"/>
<polygon fill="#000000" stroke="#000000" points="61.5791,-199.1844 58.1709,-189.1527 54.5794,-199.1202 61.5791,-199.1844"/>
<text text-anchor="middle" x="56" y="-210.8" font-family="Times,serif" font-size="14.00" fill="#000000">a</text>
</g>
<!-- 0&#45;&gt;0 -->
<g id="edge3" class="edge">
<title>0&#45;&gt;0</title>
<path fill="none" stroke="#000000" d="M52.424,-188.6991C50.4486,-205.9958 51.6406,-225 56,-225 59.5079,-225 60.9649,-212.6944 60.371,-198.875"/>
<polygon fill="#000000" stroke="#000000" points="63.8443,-198.3961 59.576,-188.6991 56.8656,-198.9414 63.8443,-198.3961"/>
<text text-anchor="middle" x="56" y="-228.8" font-family="Times,serif" font-size="14.00" fill="#000000">b</text>
</g>
<!-- 0&#45;&gt;0 -->
<g id="edge5" class="edge">
<title>0&#45;&gt;0</title>
<path fill="none" stroke="#000000" d="M51.506,-188.7154C47.4005,-213.1143 48.8984,-243 56,-243 62.1584,-243 64.1028,-220.5255 61.8333,-198.6443"/>
<polygon fill="#000000" stroke="#000000" points="65.2994,-198.1577 60.494,-188.7154 58.3622,-199.0935 65.2994,-198.1577"/>
<text text-anchor="middle" x="56" y="-246.8" font-family="Times,serif" font-size="14.00" fill="#000000">c</text>
</g>
<!-- 1 -->
<g id="node3" class="node">
<title>1</title>
<ellipse fill="none" stroke="#000000" cx="135" cy="-324" rx="18" ry="18"/>
<text text-anchor="middle" x="135" y="-320.3" font-family="Times,serif" font-size="14.00" fill="#000000">1</text>
</g>
<!-- 0&#45;&gt;1 -->
<g id="edge2" class="edge">
<title>0&#45;&gt;1</title>
<path fill="none" stroke="#000000" d="M63.1949,-187.6802C73.949,-212.159 95.2846,-259.0236 117,-297 117.6449,-298.1279 118.3198,-299.2717 119.0139,-300.4194"/>
<polygon fill="#000000" stroke="#000000" points="116.213,-302.5373 124.5354,-309.0939 122.1182,-298.7785 116.213,-302.5373"/>
<text text-anchor="middle" x="95.5" y="-266.8" font-family="Times,serif" font-size="14.00" fill="#000000">a</text>
</g>
<!-- 2 -->
<g id="node4" class="node">
<title>2</title>
<ellipse fill="none" stroke="#000000" cx="135" cy="-171" rx="18" ry="18"/>
<text text-anchor="middle" x="135" y="-167.3" font-family="Times,serif" font-size="14.00" fill="#000000">2</text>
</g>
<!-- 0&#45;&gt;2 -->
<g id="edge4" class="edge">
<title>0&#45;&gt;2</title>
<path fill="none" stroke="#000000" d="M74.3228,-171C83.8947,-171 95.8223,-171 106.5629,-171"/>
<polygon fill="#000000" stroke="#000000" points="106.7766,-174.5001 116.7766,-171 106.7766,-167.5001 106.7766,-174.5001"/>
<text text-anchor="middle" x="95.5" y="-174.8" font-family="Times,serif" font-size="14.00" fill="#000000">b</text>
</g>
<!-- 3 -->
<g id="node5" class="node">
<title>3</title>
<ellipse fill="none" stroke="#000000" cx="135" cy="-18" rx="18" ry="18"/>
<text text-anchor="middle" x="135" y="-14.3" font-family="Times,serif" font-size="14.00" fill="#000000">3</text>
</g>
<!-- 0&#45;&gt;3 -->
<g id="edge6" class="edge">
<title>0&#45;&gt;3</title>
<path fill="none" stroke="#000000" d="M64.3051,-154.9155C78.0193,-128.355 105.5078,-75.1177 121.8739,-43.4213"/>
<polygon fill="#000000" stroke="#000000" points="125.0904,-44.8207 126.5684,-34.3295 118.8706,-41.6092 125.0904,-44.8207"/>
<text text-anchor="middle" x="95.5" y="-102.8" font-family="Times,serif" font-size="14.00" fill="#000000">c</text>
</g>
<!-- 1&#45;&gt;1 -->
<g id="edge7" class="edge">
<title>1&#45;&gt;1</title>
<path fill="none" stroke="#000000" d="M132.7085,-342.1527C132.356,-351.5391 133.1198,-360 135,-360 136.1458,-360 136.877,-356.8581 137.1936,-352.2796"/>
<polygon fill="#000000" stroke="#000000" points="140.6946,-352.1861 137.2915,-342.1527 133.6949,-352.1184 140.6946,-352.1861"/>
<text text-anchor="middle" x="135" y="-363.8" font-family="Times,serif" font-size="14.00" fill="#000000">a</text>
</g>
<!-- 1&#45;&gt;1 -->
<g id="edge9" class="edge">
<title>1&#45;&gt;1</title>
<path fill="none" stroke="#000000" d="M131.2253,-341.6991C129.1402,-358.9958 130.3984,-378 135,-378 138.7028,-378 140.2408,-365.6944 139.6138,-351.875"/>
<polygon fill="#000000" stroke="#000000" points="143.0848,-351.3776 138.7747,-341.6991 136.1085,-351.9529 143.0848,-351.3776"/>
<text text-anchor="middle" x="135" y="-381.8" font-family="Times,serif" font-size="14.00" fill="#000000">b</text>
</g>
<!-- 1&#45;&gt;1 -->
<g id="edge10" class="edge">
<title>1&#45;&gt;1</title>
<path fill="none" stroke="#000000" d="M130.2564,-341.7154C125.9227,-366.1143 127.5039,-396 135,-396 141.5005,-396 143.553,-373.5255 141.1573,-351.6443"/>
<polygon fill="#000000" stroke="#000000" points="144.6184,-351.1221 139.7436,-341.7154 137.6883,-352.1089 144.6184,-351.1221"/>
<text text-anchor="middle" x="135" y="-399.8" font-family="Times,serif" font-size="14.00" fill="#000000">c</text>
</g>
<!-- 4 -->
<g id="node6" class="node">
<title>4</title>
<ellipse fill="none" stroke="#000000" stroke-width="2" cx="214" cy="-171" rx="18" ry="18"/>
<text text-anchor="middle" x="214" y="-167.3" font-family="Times,serif" font-size="14.00" fill="#000000">4</text>
</g>
<!-- 1&#45;&gt;4 -->
<g id="edge8" class="edge">
<title>1&#45;&gt;4</title>
<path fill="none" stroke="#000000" d="M145.4646,-309.0939C148.036,-305.2217 150.7069,-301.0103 153,-297 172.1706,-263.4739 191.0453,-223.0208 202.6048,-197.158"/>
<polygon fill="#000000" stroke="#000000" points="205.9533,-198.2408 206.8051,-187.6802 199.5535,-195.4046 205.9533,-198.2408"/>
<text text-anchor="middle" x="174.5" y="-266.8" font-family="Times,serif" font-size="14.00" fill="#000000">a</text>
</g>
<!-- 2&#45;&gt;2 -->
<g id="edge11" class="edge">
<title>2&#45;&gt;2</title>
<path fill="none" stroke="#000000" d="M132.7085,-189.1527C132.356,-198.5391 133.1198,-207 135,-207 136.1458,-207 136.877,-203.8581 137.1936,-199.2796"/>
<polygon fill="#000000" stroke="#000000" points="140.6946,-199.1861 137.2915,-189.1527 133.6949,-199.1184 140.6946,-199.1861"/>
<text text-anchor="middle" x="135" y="-210.8" font-family="Times,serif" font-size="14.00" fill="#000000">a</text>
</g>
<!-- 2&#45;&gt;2 -->
<g id="edge12" class="edge">
<title>2&#45;&gt;2</title>
<path fill="none" stroke="#000000" d="M131.2253,-188.6991C129.1402,-205.9958 130.3984,-225 135,-225 138.7028,-225 140.2408,-212.6944 139.6138,-198.875"/>
<polygon fill="#000000" stroke="#000000" points="143.0848,-198.3776 138.7747,-188.6991 136.1085,-198.9529 143.0848,-198.3776"/>
<text text-anchor="middle" x="135" y="-228.8" font-family="Times,serif" font-size="14.00" fill="#000000">b</text>
</g>
<!-- 2&#45;&gt;2 -->
<g id="edge14" class="edge">
<title>2&#45;&gt;2</title>
<path fill="none" stroke="#000000" d="M130.2564,-188.7154C125.9227,-213.1143 127.5039,-243 135,-243 141.5005,-243 143.553,-220.5255 141.1573,-198.6443"/>
<polygon fill="#000000" stroke="#000000" points="144.6184,-198.1221 139.7436,-188.7154 137.6883,-199.1089 144.6184,-198.1221"/>
<text text-anchor="middle" x="135" y="-246.8" font-family="Times,serif" font-size="14.00" fill="#000000">c</text>
</g>
<!-- 2&#45;&gt;4 -->
<g id="edge13" class="edge">
<title>2&#45;&gt;4</title>
<path fill="none" stroke="#000000" d="M153.3228,-171C162.8947,-171 174.8223,-171 185.5629,-171"/>
<polygon fill="#000000" stroke="#000000" points="185.7766,-174.5001 195.7766,-171 185.7766,-167.5001 185.7766,-174.5001"/>
<text text-anchor="middle" x="174.5" y="-174.8" font-family="Times,serif" font-size="14.00" fill="#000000">b</text>
</g>
<!-- 3&#45;&gt;3 -->
<g id="edge15" class="edge">
<title>3&#45;&gt;3</title>
<path fill="none" stroke="#000000" d="M132.7085,-36.1527C132.356,-45.5391 133.1198,-54 135,-54 136.1458,-54 136.877,-50.8581 137.1936,-46.2796"/>
<polygon fill="#000000" stroke="#000000" points="140.6946,-46.1861 137.2915,-36.1527 133.6949,-46.1184 140.6946,-46.1861"/>
<text text-anchor="middle" x="135" y="-57.8" font-family="Times,serif" font-size="14.00" fill="#000000">a</text>
</g>
<!-- 3&#45;&gt;3 -->
<g id="edge16" class="edge">
<title>3&#45;&gt;3</title>
<path fill="none" stroke="#000000" d="M131.2253,-35.6991C129.1402,-52.9958 130.3984,-72 135,-72 138.7028,-72 140.2408,-59.6944 139.6138,-45.875"/>
<polygon fill="#000000" stroke="#000000" points="143.0848,-45.3776 138.7747,-35.6991 136.1085,-45.9529 143.0848,-45.3776"/>
<text text-anchor="middle" x="135" y="-75.8" font-family="Times,serif" font-size="14.00" fill="#000000">b</text>
</g>
<!-- 3&#45;&gt;3 -->
<g id="edge17" class="edge">
<title>3&#45;&gt;3</title>
<path fill="none" stroke="#000000" d="M130.2564,-35.7154C125.9227,-60.1143 127.5039,-90 135,-90 141.5005,-90 143.553,-67.5255 141.1573,-45.6443"/>
<polygon fill="#000000" stroke="#000000" points="144.6184,-45.1221 139.7436,-35.7154 137.6883,-46.1089 144.6184,-45.1221"/>
<text text-anchor="middle" x="135" y="-93.8" font-family="Times,serif" font-size="14.00" fill="#000000">c</text>
</g>
<!-- 3&#45;&gt;4 -->
<g id="edge18" class="edge">
<title>3&#45;&gt;4</title>
<path fill="none" stroke="#000000" d="M143.3051,-34.0845C157.0193,-60.645 184.5078,-113.8823 200.8739,-145.5787"/>
<polygon fill="#000000" stroke="#000000" points="197.8706,-147.3908 205.5684,-154.6705 204.0904,-144.1793 197.8706,-147.3908"/>
<text text-anchor="middle" x="174.5" y="-102.8" font-family="Times,serif" font-size="14.00" fill="#000000">c</text>
</g>
</g>
</svg>
