<?xml version="1.0" encoding="UTF-8" standalone="no"?>
<!DOCTYPE svg PUBLIC "-//W3C//DTD SVG 1.1//EN"
 "http://www.w3.org/Graphics/SVG/1.1/DTD/svg11.dtd">
<!-- Generated by graphviz version 2.40.1 (20161225.0304)
 -->
<!-- Title: G Pages: 1 -->
<svg width="579pt" height="533pt"
 viewBox="7.20 7.20 572.19 525.56" xmlns="http://www.w3.org/2000/svg" xmlns:xlink="http://www.w3.org/1999/xlink">
<g id="graph0" class="graph" transform="scale(1 1) rotate(0) translate(11.2 521.5601)">
<title>G</title>
<polygon fill="#ffffff" stroke="transparent" points="-4,4 -4,-514.3601 560.9896,-514.3601 560.9896,4 -4,4"/>
<!-- start -->
<g id="node1" class="node">
<title>start</title>
</g>
<!-- 0 -->
<g id="node2" class="node">
<title>0</title>
<ellipse fill="none" stroke="#000000" cx="56" cy="-239.3601" rx="18" ry="18"/>
<text text-anchor="middle" x="56" y="-235.6601" font-family="Times,serif" font-size="14.00" fill="#000000">0</text>
</g>
<!-- start&#45;&gt;0 -->
<g id="edge46" class="edge">
<title>start&#45;&gt;0</title>
<path fill="none" stroke="#000000" stroke-dasharray="5,2" d="M1.1233,-239.3601C3.9234,-239.3601 15.7247,-239.3601 27.6695,-239.3601"/>
<polygon fill="#000000" stroke="#000000" points="27.9808,-242.8602 37.9807,-239.3601 27.9807,-235.8602 27.9808,-242.8602"/>
</g>
<!-- 1 -->
<g id="node3" class="node">
<title>1</title>
<ellipse fill="none" stroke="#000000" cx="135" cy="-403.3601" rx="18" ry="18"/>
<text text-anchor="middle" x="135" y="-399.6601" font-family="Times,serif" font-size="14.00" fill="#000000">1</text>
</g>
<!-- 0&#45;&gt;1 -->
<g id="edge1" class="edge">
<title>0&#45;&gt;1</title>
<path fill="none" stroke="#000000" d="M63.8636,-255.6846C77.6459,-284.2958 106.2574,-343.692 122.6854,-377.7955"/>
<polygon fill="#000000" stroke="#000000" points="119.6751,-379.6113 127.1682,-387.1016 125.9815,-376.5734 119.6751,-379.6113"/>
<text text-anchor="middle" x="95.5" y="-329.1601" font-family="Times,serif" font-size="14.00" fill="#000000">b</text>
</g>
<!-- 2 -->
<g id="node4" class="node">
<title>2</title>
<ellipse fill="none" stroke="#000000" cx="135" cy="-141.3601" rx="18" ry="18"/>
<text text-anchor="middle" x="135" y="-137.6601" font-family="Times,serif" font-size="14.00" fill="#000000">2</text>
</g>
<!-- 0&#45;&gt;2 -->
<g id="edge2" class="edge">
<title>0&#45;&gt;2</title>
<path fill="none" stroke="#000000" d="M67.3188,-225.3191C80.4008,-209.0908 102.0879,-182.1878 117.3814,-163.2161"/>
<polygon fill="#000000" stroke="#000000" points="120.1511,-165.3571 123.7022,-155.375 114.7013,-160.9638 120.1511,-165.3571"/>
<text text-anchor="middle" x="95.5" y="-196.1601" font-family="Times,serif" font-size="14.00" fill="#000000">c</text>
</g>
<!-- 3 -->
<g id="node5" class="node">
<title>3</title>
<ellipse fill="none" stroke="#000000" cx="135" cy="-239.3601" rx="18" ry="18"/>
<text text-anchor="middle" x="135" y="-235.6601" font-family="Times,serif" font-size="14.00" fill="#000000">3</text>
</g>
<!-- 0&#45;&gt;3 -->
<g id="edge3" class="edge">
<title>0&#45;&gt;3</title>
<path fill="none" stroke="#000000" d="M74.3228,-239.3601C83.8947,-239.3601 95.8223,-239.3601 106.5629,-239.3601"/>
<polygon fill="#000000" stroke="#000000" points="106.7766,-242.8602 116.7766,-239.3601 106.7766,-235.8602 106.7766,-242.8602"/>
<text text-anchor="middle" x="95.5" y="-243.1601" font-family="Times,serif" font-size="14.00" fill="#000000">a</text>
</g>
<!-- 4 -->
<g id="node6" class="node">
<title>4</title>
<ellipse fill="none" stroke="#000000" cx="297.4948" cy="-428.3601" rx="18" ry="18"/>
<text text-anchor="middle" x="297.4948" y="-424.6601" font-family="Times,serif" font-size="14.00" fill="#000000">4</text>
</g>
<!-- 1&#45;&gt;4 -->
<g id="edge42" class="edge">
<title>1&#45;&gt;4</title>
<path fill="none" stroke="#000000" d="M141.301,-420.5846C149.9913,-441.4782 167.8516,-475.7183 196,-490.3601 211.376,-498.3582 218.9708,-496.9606 234.9965,-490.3601 253.9555,-482.5514 270.2073,-465.9002 281.3827,-451.8187"/>
<polygon fill="#000000" stroke="#000000" points="284.4399,-453.5775 287.6638,-443.485 278.8498,-449.3642 284.4399,-453.5775"/>
<text text-anchor="middle" x="215.4983" y="-499.1601" font-family="Times,serif" font-size="14.00" fill="#000000">a</text>
</g>
<!-- 11 -->
<g id="node13" class="node">
<title>11</title>
<ellipse fill="none" stroke="#000000" cx="297.4948" cy="-255.3601" rx="19.4965" ry="19.4965"/>
<text text-anchor="middle" x="297.4948" y="-251.6601" font-family="Times,serif" font-size="14.00" fill="#000000">11</text>
</g>
<!-- 1&#45;&gt;11 -->
<g id="edge41" class="edge">
<title>1&#45;&gt;11</title>
<path fill="none" stroke="#000000" d="M151.6517,-395.8426C172.4208,-386.005 208.4279,-367.3986 234.9965,-345.3601 248.0941,-334.4957 249.9529,-330.0971 259.9965,-316.3601 268.1361,-305.2274 276.2629,-292.2881 282.8596,-281.1986"/>
<polygon fill="#000000" stroke="#000000" points="285.979,-282.7976 288.0076,-272.3987 279.937,-279.2629 285.979,-282.7976"/>
<text text-anchor="middle" x="215.4983" y="-375.1601" font-family="Times,serif" font-size="14.00" fill="#000000">c</text>
</g>
<!-- 14 -->
<g id="node16" class="node">
<title>14</title>
<ellipse fill="none" stroke="#000000" stroke-width="2" cx="215.4983" cy="-429.3601" rx="19.4965" ry="19.4965"/>
<text text-anchor="middle" x="215.4983" y="-425.6601" font-family="Times,serif" font-size="14.00" fill="#000000">14</text>
</g>
<!-- 1&#45;&gt;14 -->
<g id="edge40" class="edge">
<title>1&#45;&gt;14</title>
<path fill="none" stroke="#000000" d="M152.4669,-409.0017C162.5524,-412.2592 175.4836,-416.4358 187.0057,-420.1573"/>
<polygon fill="#000000" stroke="#000000" points="186.0698,-423.533 196.6615,-423.276 188.2213,-416.8718 186.0698,-423.533"/>
<text text-anchor="middle" x="174.5" y="-420.1601" font-family="Times,serif" font-size="14.00" fill="#000000">b</text>
</g>
<!-- 5 -->
<g id="node7" class="node">
<title>5</title>
<ellipse fill="none" stroke="#000000" cx="297.4948" cy="-78.3601" rx="18" ry="18"/>
<text text-anchor="middle" x="297.4948" y="-74.6601" font-family="Times,serif" font-size="14.00" fill="#000000">5</text>
</g>
<!-- 2&#45;&gt;5 -->
<g id="edge30" class="edge">
<title>2&#45;&gt;5</title>
<path fill="none" stroke="#000000" d="M137.0266,-123.3954C141.5209,-93.0971 155.3763,-32.5825 196,-6.3601 210.5616,3.0394 219.2278,.8329 234.9965,-6.3601 256.0893,-15.9817 272.8098,-36.6274 283.6284,-53.3541"/>
<polygon fill="#000000" stroke="#000000" points="280.8102,-55.4538 289.0218,-62.1486 286.7775,-51.7942 280.8102,-55.4538"/>
<text text-anchor="middle" x="215.4983" y="-10.1601" font-family="Times,serif" font-size="14.00" fill="#000000">a</text>
</g>
<!-- 2&#45;&gt;11 -->
<g id="edge28" class="edge">
<title>2&#45;&gt;11</title>
<path fill="none" stroke="#000000" d="M151.6541,-149.1582C172.1135,-159.0753 207.4895,-177.3341 234.9965,-197.3601 249.9182,-208.2236 265.1307,-222.2639 276.8109,-233.8094"/>
<polygon fill="#000000" stroke="#000000" points="274.4052,-236.3538 283.9378,-240.9777 279.3692,-231.4184 274.4052,-236.3538"/>
<text text-anchor="middle" x="215.4983" y="-201.1601" font-family="Times,serif" font-size="14.00" fill="#000000">b</text>
</g>
<!-- 12 -->
<g id="node14" class="node">
<title>12</title>
<ellipse fill="none" stroke="#000000" stroke-width="2" cx="215.4983" cy="-49.3601" rx="19.4965" ry="19.4965"/>
<text text-anchor="middle" x="215.4983" y="-45.6601" font-family="Times,serif" font-size="14.00" fill="#000000">12</text>
</g>
<!-- 2&#45;&gt;12 -->
<g id="edge29" class="edge">
<title>2&#45;&gt;12</title>
<path fill="none" stroke="#000000" d="M146.8778,-127.7852C159.7726,-113.048 180.5721,-89.2766 195.896,-71.7632"/>
<polygon fill="#000000" stroke="#000000" points="198.5524,-74.0424 202.5033,-64.2117 193.2843,-69.4329 198.5524,-74.0424"/>
<text text-anchor="middle" x="174.5" y="-102.1601" font-family="Times,serif" font-size="14.00" fill="#000000">c</text>
</g>
<!-- 3&#45;&gt;4 -->
<g id="edge4" class="edge">
<title>3&#45;&gt;4</title>
<path fill="none" stroke="#000000" d="M147.4797,-252.9099C159.4013,-265.5369 178.1478,-284.5851 196,-299.3601 212.2401,-312.8008 220.5124,-311.0434 234.9965,-326.3601 256.6248,-349.2316 274.5508,-380.7759 285.5768,-402.7056"/>
<polygon fill="#000000" stroke="#000000" points="282.4653,-404.3101 290.0081,-411.7503 288.7514,-401.2303 282.4653,-404.3101"/>
<text text-anchor="middle" x="215.4983" y="-330.1601" font-family="Times,serif" font-size="14.00" fill="#000000">b</text>
</g>
<!-- 3&#45;&gt;5 -->
<g id="edge5" class="edge">
<title>3&#45;&gt;5</title>
<path fill="none" stroke="#000000" d="M143.5678,-223.1555C154.019,-204.5457 173.1484,-173.9397 196,-153.3601 220.2499,-131.5212 234.1901,-137.3357 259.9965,-117.3601 266.6814,-112.1856 273.3006,-105.8292 279.0741,-99.7614"/>
<polygon fill="#000000" stroke="#000000" points="281.6992,-102.0774 285.8762,-92.3406 276.539,-97.3474 281.6992,-102.0774"/>
<text text-anchor="middle" x="215.4983" y="-157.1601" font-family="Times,serif" font-size="14.00" fill="#000000">c</text>
</g>
<!-- 6 -->
<g id="node8" class="node">
<title>6</title>
<ellipse fill="none" stroke="#000000" stroke-width="2" cx="215.4983" cy="-239.3601" rx="18" ry="18"/>
<text text-anchor="middle" x="215.4983" y="-235.6601" font-family="Times,serif" font-size="14.00" fill="#000000">6</text>
</g>
<!-- 3&#45;&gt;6 -->
<g id="edge6" class="edge">
<title>3&#45;&gt;6</title>
<path fill="none" stroke="#000000" d="M153.2663,-239.3601C163.2497,-239.3601 175.8361,-239.3601 187.0731,-239.3601"/>
<polygon fill="#000000" stroke="#000000" points="187.3043,-242.8602 197.3043,-239.3601 187.3042,-235.8602 187.3043,-242.8602"/>
<text text-anchor="middle" x="174.5" y="-243.1601" font-family="Times,serif" font-size="14.00" fill="#000000">a</text>
</g>
<!-- 7 -->
<g id="node9" class="node">
<title>7</title>
<ellipse fill="none" stroke="#000000" cx="459.9896" cy="-307.3601" rx="18" ry="18"/>
<text text-anchor="middle" x="459.9896" y="-303.6601" font-family="Times,serif" font-size="14.00" fill="#000000">7</text>
</g>
<!-- 4&#45;&gt;7 -->
<g id="edge23" class="edge">
<title>4&#45;&gt;7</title>
<path fill="none" stroke="#000000" d="M308.6534,-442.7642C327.8878,-465.8286 368.1848,-506.3266 398.9896,-484.3601 423.7342,-466.7151 444.8783,-380.397 454.4779,-335.153"/>
<polygon fill="#000000" stroke="#000000" points="457.9549,-335.6227 456.5599,-325.1201 451.1009,-334.2003 457.9549,-335.6227"/>
<text text-anchor="middle" x="379.4913" y="-494.1601" font-family="Times,serif" font-size="14.00" fill="#000000">c</text>
</g>
<!-- 10 -->
<g id="node12" class="node">
<title>10</title>
<ellipse fill="none" stroke="#000000" stroke-width="2" cx="379.4913" cy="-390.3601" rx="19.4965" ry="19.4965"/>
<text text-anchor="middle" x="379.4913" y="-386.6601" font-family="Times,serif" font-size="14.00" fill="#000000">10</text>
</g>
<!-- 4&#45;&gt;10 -->
<g id="edge22" class="edge">
<title>4&#45;&gt;10</title>
<path fill="none" stroke="#000000" d="M308.1591,-413.2839C314.8388,-405.1752 324.2133,-395.9252 334.9931,-391.3601 339.5559,-389.4278 344.6249,-388.4007 349.6602,-387.9467"/>
<polygon fill="#000000" stroke="#000000" points="349.859,-391.4432 359.7755,-387.7131 349.6973,-384.445 349.859,-391.4432"/>
<text text-anchor="middle" x="338.4931" y="-395.1601" font-family="Times,serif" font-size="14.00" fill="#000000">b</text>
</g>
<!-- 4&#45;&gt;10 -->
<g id="edge24" class="edge">
<title>4&#45;&gt;10</title>
<path fill="none" stroke="#000000" d="M314.088,-420.6702C325.1261,-415.5548 339.8749,-408.7197 352.5728,-402.8351"/>
<polygon fill="#000000" stroke="#000000" points="354.1863,-405.945 361.7877,-398.5646 351.2429,-399.5938 354.1863,-405.945"/>
<text text-anchor="middle" x="338.4931" y="-414.1601" font-family="Times,serif" font-size="14.00" fill="#000000">a</text>
</g>
<!-- 5&#45;&gt;7 -->
<g id="edge10" class="edge">
<title>5&#45;&gt;7</title>
<path fill="none" stroke="#000000" d="M312.2493,-67.9386C333.6093,-54.2524 373.3849,-34.1951 398.9896,-54.3601 434.2437,-82.1244 451.5143,-219.1236 457.4841,-279.1259"/>
<polygon fill="#000000" stroke="#000000" points="454.0298,-279.77 458.4691,-289.3899 460.9977,-279.1013 454.0298,-279.77"/>
<text text-anchor="middle" x="379.4913" y="-58.1601" font-family="Times,serif" font-size="14.00" fill="#000000">b</text>
</g>
<!-- 8 -->
<g id="node10" class="node">
<title>8</title>
<ellipse fill="none" stroke="#000000" stroke-width="2" cx="379.4913" cy="-96.3601" rx="18" ry="18"/>
<text text-anchor="middle" x="379.4913" y="-92.6601" font-family="Times,serif" font-size="14.00" fill="#000000">8</text>
</g>
<!-- 5&#45;&gt;8 -->
<g id="edge11" class="edge">
<title>5&#45;&gt;8</title>
<path fill="none" stroke="#000000" d="M313.4959,-86.685C319.9918,-89.663 327.678,-92.6927 334.9931,-94.3601 340.139,-95.533 345.7039,-96.2227 351.0986,-96.6034"/>
<polygon fill="#000000" stroke="#000000" points="350.977,-100.1013 361.108,-97.0006 351.2547,-93.1068 350.977,-100.1013"/>
<text text-anchor="middle" x="338.4931" y="-100.1601" font-family="Times,serif" font-size="14.00" fill="#000000">c</text>
</g>
<!-- 5&#45;&gt;8 -->
<g id="edge12" class="edge">
<title>5&#45;&gt;8</title>
<path fill="none" stroke="#000000" d="M315.4961,-74.5578C323.6938,-73.4825 333.4521,-73.1314 341.9931,-75.3601 346.5844,-76.5582 351.2086,-78.4569 355.566,-80.6342"/>
<polygon fill="#000000" stroke="#000000" points="354.1289,-83.8412 364.5627,-85.682 357.5542,-77.7364 354.1289,-83.8412"/>
<text text-anchor="middle" x="338.4931" y="-79.1601" font-family="Times,serif" font-size="14.00" fill="#000000">a</text>
</g>
<!-- 6&#45;&gt;4 -->
<g id="edge7" class="edge">
<title>6&#45;&gt;4</title>
<path fill="none" stroke="#000000" d="M228.0635,-252.6615C237.9943,-263.8205 251.5466,-280.5846 259.9965,-297.3601 276.8135,-330.7466 287.1571,-372.8309 292.6112,-400.1537"/>
<polygon fill="#000000" stroke="#000000" points="289.2157,-401.0327 294.5284,-410.1992 296.0916,-399.7204 289.2157,-401.0327"/>
<text text-anchor="middle" x="256.4965" y="-301.1601" font-family="Times,serif" font-size="14.00" fill="#000000">b</text>
</g>
<!-- 6&#45;&gt;5 -->
<g id="edge8" class="edge">
<title>6&#45;&gt;5</title>
<path fill="none" stroke="#000000" d="M225.3235,-223.9108C228.5173,-218.7141 232.0067,-212.8433 234.9965,-207.3601 254.1172,-172.2935 273.8279,-130.4924 285.8735,-104.1841"/>
<polygon fill="#000000" stroke="#000000" points="289.1393,-105.4575 290.0975,-94.9061 282.7685,-102.557 289.1393,-105.4575"/>
<text text-anchor="middle" x="256.4965" y="-176.1601" font-family="Times,serif" font-size="14.00" fill="#000000">c</text>
</g>
<!-- 6&#45;&gt;6 -->
<g id="edge9" class="edge">
<title>6&#45;&gt;6</title>
<path fill="none" stroke="#000000" d="M208.467,-256.0241C206.9045,-265.9851 209.2483,-275.3601 215.4983,-275.3601 219.5022,-275.3601 221.903,-271.5126 222.7006,-266.1283"/>
<polygon fill="#000000" stroke="#000000" points="226.1984,-265.9634 222.5295,-256.0241 219.1994,-266.082 226.1984,-265.9634"/>
<text text-anchor="middle" x="215.4983" y="-279.1601" font-family="Times,serif" font-size="14.00" fill="#000000">a</text>
</g>
<!-- 9 -->
<g id="node11" class="node">
<title>9</title>
<ellipse fill="none" stroke="#000000" stroke-width="2" cx="538.9896" cy="-307.3601" rx="18" ry="18"/>
<text text-anchor="middle" x="538.9896" y="-303.6601" font-family="Times,serif" font-size="14.00" fill="#000000">9</text>
</g>
<!-- 7&#45;&gt;9 -->
<g id="edge16" class="edge">
<title>7&#45;&gt;9</title>
<path fill="none" stroke="#000000" d="M475.9899,-316.1918C482.064,-319.0777 489.1653,-321.9119 495.9896,-323.3601 502.0794,-324.6524 508.4587,-323.6644 514.3831,-321.6678"/>
<polygon fill="#000000" stroke="#000000" points="516.0151,-324.7749 523.7926,-317.5803 513.226,-318.3545 516.0151,-324.7749"/>
<text text-anchor="middle" x="499.4896" y="-327.1601" font-family="Times,serif" font-size="14.00" fill="#000000">b</text>
</g>
<!-- 7&#45;&gt;9 -->
<g id="edge17" class="edge">
<title>7&#45;&gt;9</title>
<path fill="none" stroke="#000000" d="M477.9695,-305.212C485.6692,-304.5238 494.765,-304.018 502.9896,-304.3601 505.5666,-304.4673 508.2447,-304.6174 510.9249,-304.794"/>
<polygon fill="#000000" stroke="#000000" points="510.8245,-308.2965 521.0627,-305.5708 511.3594,-301.317 510.8245,-308.2965"/>
<text text-anchor="middle" x="499.4896" y="-308.1601" font-family="Times,serif" font-size="14.00" fill="#000000">c</text>
</g>
<!-- 7&#45;&gt;9 -->
<g id="edge18" class="edge">
<title>7&#45;&gt;9</title>
<path fill="none" stroke="#000000" d="M474.1203,-295.6829C480.4107,-291.2164 488.1587,-286.6481 495.9896,-284.3601 503.3643,-282.2054 510.914,-284.4686 517.5879,-288.2883"/>
<polygon fill="#000000" stroke="#000000" points="515.8439,-291.3393 526.0472,-294.193 519.8505,-285.5993 515.8439,-291.3393"/>
<text text-anchor="middle" x="499.4896" y="-288.1601" font-family="Times,serif" font-size="14.00" fill="#000000">a</text>
</g>
<!-- 8&#45;&gt;7 -->
<g id="edge13" class="edge">
<title>8&#45;&gt;7</title>
<path fill="none" stroke="#000000" d="M385.9428,-113.2704C399.9262,-149.9233 433.1172,-236.9228 449.9009,-280.9157"/>
<polygon fill="#000000" stroke="#000000" points="446.6728,-282.2736 453.5075,-290.3692 453.213,-279.7785 446.6728,-282.2736"/>
<text text-anchor="middle" x="420.4896" y="-211.1601" font-family="Times,serif" font-size="14.00" fill="#000000">b</text>
</g>
<!-- 8&#45;&gt;8 -->
<g id="edge14" class="edge">
<title>8&#45;&gt;8</title>
<path fill="none" stroke="#000000" d="M375.8961,-114.1418C375.2851,-123.675 376.4835,-132.3601 379.4913,-132.3601 381.3242,-132.3601 382.4852,-129.135 382.9743,-124.4582"/>
<polygon fill="#000000" stroke="#000000" points="386.4775,-124.1794 383.0866,-114.1418 379.4779,-124.1031 386.4775,-124.1794"/>
<text text-anchor="middle" x="379.4913" y="-136.1601" font-family="Times,serif" font-size="14.00" fill="#000000">c</text>
</g>
<!-- 8&#45;&gt;8 -->
<g id="edge15" class="edge">
<title>8&#45;&gt;8</title>
<path fill="none" stroke="#000000" d="M373.6393,-113.5018C370.1969,-130.945 372.1476,-150.3601 379.4913,-150.3601 385.4008,-150.3601 387.8181,-137.7884 386.7432,-123.7888"/>
<polygon fill="#000000" stroke="#000000" points="390.1599,-122.9386 385.3434,-113.5018 383.2238,-123.8825 390.1599,-122.9386"/>
<text text-anchor="middle" x="379.4913" y="-154.1601" font-family="Times,serif" font-size="14.00" fill="#000000">a</text>
</g>
<!-- 9&#45;&gt;9 -->
<g id="edge19" class="edge">
<title>9&#45;&gt;9</title>
<path fill="none" stroke="#000000" d="M536.6981,-325.5128C536.3456,-334.8991 537.1094,-343.3601 538.9896,-343.3601 540.1354,-343.3601 540.8666,-340.2182 541.1832,-335.6397"/>
<polygon fill="#000000" stroke="#000000" points="544.6842,-335.5462 541.2811,-325.5128 537.6845,-335.4785 544.6842,-335.5462"/>
<text text-anchor="middle" x="538.9896" y="-347.1601" font-family="Times,serif" font-size="14.00" fill="#000000">b</text>
</g>
<!-- 9&#45;&gt;9 -->
<g id="edge20" class="edge">
<title>9&#45;&gt;9</title>
<path fill="none" stroke="#000000" d="M535.2149,-325.0592C533.1298,-342.3559 534.3881,-361.3601 538.9896,-361.3601 542.6924,-361.3601 544.2304,-349.0545 543.6035,-335.2351"/>
<polygon fill="#000000" stroke="#000000" points="547.0744,-334.7377 542.7643,-325.0592 540.0981,-335.313 547.0744,-334.7377"/>
<text text-anchor="middle" x="538.9896" y="-365.1601" font-family="Times,serif" font-size="14.00" fill="#000000">c</text>
</g>
<!-- 9&#45;&gt;9 -->
<g id="edge21" class="edge">
<title>9&#45;&gt;9</title>
<path fill="none" stroke="#000000" d="M534.246,-325.0754C529.9123,-349.4743 531.4935,-379.3601 538.9896,-379.3601 545.4901,-379.3601 547.5426,-356.8856 545.1469,-335.0044"/>
<polygon fill="#000000" stroke="#000000" points="548.608,-334.4822 543.7332,-325.0754 541.6779,-335.469 548.608,-334.4822"/>
<text text-anchor="middle" x="538.9896" y="-383.1601" font-family="Times,serif" font-size="14.00" fill="#000000">a</text>
</g>
<!-- 10&#45;&gt;7 -->
<g id="edge26" class="edge">
<title>10&#45;&gt;7</title>
<path fill="none" stroke="#000000" d="M394.9557,-378.3659C403.8187,-371.2011 414.9433,-361.7011 423.9896,-352.3601 430.5932,-345.5414 437.2466,-337.5962 443.006,-330.2959"/>
<polygon fill="#000000" stroke="#000000" points="445.9683,-332.1858 449.2998,-322.1284 440.4235,-327.9131 445.9683,-332.1858"/>
<text text-anchor="middle" x="420.4896" y="-362.1601" font-family="Times,serif" font-size="14.00" fill="#000000">c</text>
</g>
<!-- 10&#45;&gt;10 -->
<g id="edge25" class="edge">
<title>10&#45;&gt;10</title>
<path fill="none" stroke="#000000" d="M375.8521,-409.6537C375.3486,-419.2757 376.5617,-427.8584 379.4913,-427.8584 381.2766,-427.8584 382.4245,-424.6713 382.9349,-420.0041"/>
<polygon fill="#000000" stroke="#000000" points="386.4408,-419.7181 383.1306,-409.6537 379.442,-419.5857 386.4408,-419.7181"/>
<text text-anchor="middle" x="379.4913" y="-431.6584" font-family="Times,serif" font-size="14.00" fill="#000000">b</text>
</g>
<!-- 10&#45;&gt;10 -->
<g id="edge27" class="edge">
<title>10&#45;&gt;10</title>
<path fill="none" stroke="#000000" d="M373.4269,-409.1243C370.2824,-426.7447 372.3038,-445.8584 379.4913,-445.8584 385.3312,-445.8584 387.7607,-433.2404 386.7797,-419.0574"/>
<polygon fill="#000000" stroke="#000000" points="390.2526,-418.6212 385.5558,-409.1243 383.3051,-419.4773 390.2526,-418.6212"/>
<text text-anchor="middle" x="379.4913" y="-449.6584" font-family="Times,serif" font-size="14.00" fill="#000000">a</text>
</g>
<!-- 11&#45;&gt;7 -->
<g id="edge36" class="edge">
<title>11&#45;&gt;7</title>
<path fill="none" stroke="#000000" d="M309.3734,-271.129C320.6773,-284.708 339.0375,-303.3451 359.9931,-311.3601 383.2092,-320.2396 411.7061,-317.9455 432.3312,-314.1932"/>
<polygon fill="#000000" stroke="#000000" points="433.2331,-317.5813 442.3296,-312.1495 431.8312,-310.7231 433.2331,-317.5813"/>
<text text-anchor="middle" x="379.4913" y="-321.1601" font-family="Times,serif" font-size="14.00" fill="#000000">a</text>
</g>
<!-- 13 -->
<g id="node15" class="node">
<title>13</title>
<ellipse fill="none" stroke="#000000" stroke-width="2" cx="379.4913" cy="-217.3601" rx="19.4965" ry="19.4965"/>
<text text-anchor="middle" x="379.4913" y="-213.6601" font-family="Times,serif" font-size="14.00" fill="#000000">13</text>
</g>
<!-- 11&#45;&gt;13 -->
<g id="edge34" class="edge">
<title>11&#45;&gt;13</title>
<path fill="none" stroke="#000000" d="M309.1161,-239.1367C315.7207,-231.3183 324.7186,-222.7112 334.9931,-218.3601 339.5559,-216.4278 344.6249,-215.4007 349.6602,-214.9467"/>
<polygon fill="#000000" stroke="#000000" points="349.859,-218.4432 359.7755,-214.7131 349.6973,-211.445 349.859,-218.4432"/>
<text text-anchor="middle" x="338.4931" y="-222.1601" font-family="Times,serif" font-size="14.00" fill="#000000">b</text>
</g>
<!-- 11&#45;&gt;13 -->
<g id="edge35" class="edge">
<title>11&#45;&gt;13</title>
<path fill="none" stroke="#000000" d="M315.2868,-247.1146C326.1393,-242.0853 340.2264,-235.5568 352.4391,-229.897"/>
<polygon fill="#000000" stroke="#000000" points="354.1327,-232.9698 361.734,-225.5894 351.1893,-226.6187 354.1327,-232.9698"/>
<text text-anchor="middle" x="338.4931" y="-241.1601" font-family="Times,serif" font-size="14.00" fill="#000000">c</text>
</g>
<!-- 12&#45;&gt;5 -->
<g id="edge33" class="edge">
<title>12&#45;&gt;5</title>
<path fill="none" stroke="#000000" d="M234.8096,-53.2247C242.7247,-55.0421 251.9082,-57.4539 259.9965,-60.3601 264.0486,-61.816 268.2473,-63.5702 272.3046,-65.4047"/>
<polygon fill="#000000" stroke="#000000" points="270.846,-68.5867 281.3791,-69.7285 273.857,-62.2673 270.846,-68.5867"/>
<text text-anchor="middle" x="256.4965" y="-64.1601" font-family="Times,serif" font-size="14.00" fill="#000000">a</text>
</g>
<!-- 12&#45;&gt;11 -->
<g id="edge31" class="edge">
<title>12&#45;&gt;11</title>
<path fill="none" stroke="#000000" d="M224.7043,-66.8914C234.2126,-85.3696 249.1513,-115.4685 259.9965,-142.3601 271.3268,-170.4543 281.9738,-203.4156 289.0065,-226.4639"/>
<polygon fill="#000000" stroke="#000000" points="285.7353,-227.7391 291.9729,-236.3031 292.4373,-225.7184 285.7353,-227.7391"/>
<text text-anchor="middle" x="256.4965" y="-146.1601" font-family="Times,serif" font-size="14.00" fill="#000000">b</text>
</g>
<!-- 12&#45;&gt;12 -->
<g id="edge32" class="edge">
<title>12&#45;&gt;12</title>
<path fill="none" stroke="#000000" d="M208.3077,-67.8819C207.0858,-77.8118 209.4826,-86.8584 215.4983,-86.8584 219.258,-86.8584 221.6042,-83.3246 222.5368,-78.2499"/>
<polygon fill="#000000" stroke="#000000" points="226.0418,-77.9321 222.6888,-67.8819 219.0425,-77.8295 226.0418,-77.9321"/>
<text text-anchor="middle" x="215.4983" y="-90.6584" font-family="Times,serif" font-size="14.00" fill="#000000">c</text>
</g>
<!-- 13&#45;&gt;7 -->
<g id="edge39" class="edge">
<title>13&#45;&gt;7</title>
<path fill="none" stroke="#000000" d="M392.784,-232.2218C405.9086,-246.8956 426.1106,-269.4821 440.9399,-286.0618"/>
<polygon fill="#000000" stroke="#000000" points="438.4581,-288.5371 447.7336,-293.6574 443.6756,-283.8704 438.4581,-288.5371"/>
<text text-anchor="middle" x="420.4896" y="-268.1601" font-family="Times,serif" font-size="14.00" fill="#000000">a</text>
</g>
<!-- 13&#45;&gt;13 -->
<g id="edge37" class="edge">
<title>13&#45;&gt;13</title>
<path fill="none" stroke="#000000" d="M375.8521,-236.6537C375.3486,-246.2757 376.5617,-254.8584 379.4913,-254.8584 381.2766,-254.8584 382.4245,-251.6713 382.9349,-247.0041"/>
<polygon fill="#000000" stroke="#000000" points="386.4408,-246.7181 383.1306,-236.6537 379.442,-246.5857 386.4408,-246.7181"/>
<text text-anchor="middle" x="379.4913" y="-258.6584" font-family="Times,serif" font-size="14.00" fill="#000000">b</text>
</g>
<!-- 13&#45;&gt;13 -->
<g id="edge38" class="edge">
<title>13&#45;&gt;13</title>
<path fill="none" stroke="#000000" d="M373.4269,-236.1243C370.2824,-253.7447 372.3038,-272.8584 379.4913,-272.8584 385.3312,-272.8584 387.7607,-260.2404 386.7797,-246.0574"/>
<polygon fill="#000000" stroke="#000000" points="390.2526,-245.6212 385.5558,-236.1243 383.3051,-246.4773 390.2526,-245.6212"/>
<text text-anchor="middle" x="379.4913" y="-276.6584" font-family="Times,serif" font-size="14.00" fill="#000000">c</text>
</g>
<!-- 14&#45;&gt;4 -->
<g id="edge45" class="edge">
<title>14&#45;&gt;4</title>
<path fill="none" stroke="#000000" d="M235.3473,-429.118C245.4762,-428.9945 257.9766,-428.842 269.1043,-428.7063"/>
<polygon fill="#000000" stroke="#000000" points="269.2737,-432.2046 279.2303,-428.5828 269.1883,-425.2051 269.2737,-432.2046"/>
<text text-anchor="middle" x="256.4965" y="-432.1601" font-family="Times,serif" font-size="14.00" fill="#000000">a</text>
</g>
<!-- 14&#45;&gt;11 -->
<g id="edge44" class="edge">
<title>14&#45;&gt;11</title>
<path fill="none" stroke="#000000" d="M231.5989,-418.1384C241.1383,-410.7087 252.7424,-400.1774 259.9965,-388.3601 279.6949,-356.2709 289.3343,-313.5376 293.8446,-285.273"/>
<polygon fill="#000000" stroke="#000000" points="297.3335,-285.6052 295.3324,-275.2011 290.4086,-284.5823 297.3335,-285.6052"/>
<text text-anchor="middle" x="256.4965" y="-401.1601" font-family="Times,serif" font-size="14.00" fill="#000000">c</text>
</g>
<!-- 14&#45;&gt;14 -->
<g id="edge43" class="edge">
<title>14&#45;&gt;14</title>
<path fill="none" stroke="#000000" d="M208.3077,-447.8819C207.0858,-457.8118 209.4826,-466.8584 215.4983,-466.8584 219.258,-466.8584 221.6042,-463.3246 222.5368,-458.2499"/>
<polygon fill="#000000" stroke="#000000" points="226.0418,-457.9321 222.6888,-447.8819 219.0425,-457.8295 226.0418,-457.9321"/>
<text text-anchor="middle" x="215.4983" y="-470.6584" font-family="Times,serif" font-size="14.00" fill="#000000">b</text>
</g>
</g>
</svg>
